<?xml version="1.0" standalone="no"?>
<!DOCTYPE svg PUBLIC "-//W3C//DTD SVG 20010904//EN"
 "http://www.w3.org/TR/2001/REC-SVG-20010904/DTD/svg10.dtd">
<svg version="1.0" xmlns="http://www.w3.org/2000/svg"
 width="150.000000pt" height="150.000000pt" viewBox="0 0 150.000000 150.000000"
 preserveAspectRatio="xMidYMid meet">

<g transform="translate(0.000000,150.000000) scale(0.100000,-0.100000)"
fill="#000000" stroke="none">
<path d="M1084 1065 c-4 -9 -15 -13 -30 -11 -13 3 -24 0 -24 -5 0 -5 11 -9 24
-9 28 0 43 -17 28 -32 -12 -12 -55 -1 -47 13 4 5 2 9 -4 9 -5 0 -13 -4 -16
-10 -3 -5 -1 -10 4 -10 6 0 11 -4 11 -10 0 -5 -12 -10 -26 -10 -20 0 -24 -4
-20 -18 4 -11 0 -35 -9 -55 -27 -64 -18 -137 16 -137 16 0 19 8 19 49 0 27 5
62 10 77 7 18 7 30 0 39 -8 9 -2 16 22 25 18 7 40 22 49 33 15 18 20 18 75 6
75 -16 111 -41 135 -93 24 -53 24 -80 -2 -132 -40 -84 -146 -112 -224 -59 -20
15 -39 25 -40 23 -2 -2 -1 -16 2 -31 6 -29 47 -58 71 -50 6 3 12 0 12 -6 0
-29 113 -5 168 36 65 48 92 156 59 236 -20 47 -89 105 -134 112 -21 3 -46 8
-57 10 -10 2 -29 -3 -42 -12 -13 -8 -24 -11 -24 -5 0 6 6 13 13 15 9 4 9 6 -1
6 -7 1 -10 6 -7 11 3 6 4 10 0 10 -3 0 -8 -7 -11 -15z m6 -369 c0 -11 -19 -15
-25 -6 -3 5 1 10 9 10 9 0 16 -2 16 -4z"/>
<path d="M130 855 l0 -195 25 0 c25 0 25 1 25 82 0 61 4 86 16 99 16 18 18 17
46 -19 17 -20 36 -46 44 -57 13 -18 15 -18 30 -3 15 14 14 17 -2 36 -13 16
-21 18 -30 11 -10 -8 -13 -4 -11 17 1 20 -4 31 -20 39 -23 12 -22 12 23 56 78
75 84 82 77 93 -3 6 -3 8 2 4 10 -9 45 9 45 23 0 6 -5 7 -11 3 -7 -4 -21 -7
-33 -8 -12 -1 -21 -8 -21 -16 0 -8 -6 -15 -14 -15 -8 0 -42 -26 -75 -57 l-61
-57 -3 80 c-3 76 -4 79 -27 79 l-25 0 0 -195z"/>
<path d="M479 1013 c-5 -183 -1 -266 12 -274 33 -21 35 -10 35 149 -1 155 -1
157 -23 160 -20 3 -23 -1 -24 -35z"/>
<path d="M829 913 c-1 -76 -2 -164 -3 -195 -3 -54 -1 -58 20 -58 13 0 25 7 27
18 4 14 2 321 -2 360 0 6 -10 12 -21 12 -19 0 -20 -7 -21 -137z"/>
<path d="M936 1037 c3 -10 9 -15 12 -12 3 3 0 11 -7 18 -10 9 -11 8 -5 -6z"/>
<path d="M640 1010 c0 -5 5 -10 11 -10 5 0 7 5 4 10 -3 6 -8 10 -11 10 -2 0
-4 -4 -4 -10z"/>
<path d="M1115 990 c-19 -8 -19 -9 3 -9 12 -1 22 4 22 9 0 6 -1 10 -2 9 -2 0
-12 -4 -23 -9z"/>
<path d="M1040 870 c0 -5 5 -10 11 -10 5 0 7 5 4 10 -3 6 -8 10 -11 10 -2 0
-4 -4 -4 -10z"/>
<path d="M741 787 c-1 -10 -5 -15 -11 -12 -5 3 -10 2 -10 -4 0 -5 5 -13 10
-16 12 -7 24 19 17 37 -3 8 -6 6 -6 -5z"/>
<path d="M1006 751 c-4 -7 -5 -15 -2 -18 9 -9 19 4 14 18 -4 11 -6 11 -12 0z"/>
<path d="M322 742 c-21 -14 47 -85 77 -81 l23 4 -22 28 c-12 15 -26 25 -31 22
-5 -4 -9 3 -9 14 0 22 -16 27 -38 13z"/>
<path d="M802 700 c0 -14 2 -19 5 -12 2 6 2 18 0 25 -3 6 -5 1 -5 -13z"/>
<path d="M489 689 c-11 -7 -11 -9 4 -9 9 0 17 -4 17 -10 0 -17 17 -11 22 8 6
20 -19 27 -43 11z"/>
<path d="M567 680 c5 -18 14 -20 84 -20 72 0 79 2 79 20 0 18 -7 20 -84 20
-79 0 -84 -1 -79 -20z"/>
<path d="M352 493 c0 -38 3 -53 5 -35 4 28 8 32 36 33 l32 1 -30 7 c-21 4 -31
13 -33 28 -3 19 2 22 35 26 l38 4 -42 1 -43 2 2 -67z"/>
<path d="M460 497 l0 -67 43 1 42 2 -35 6 c-35 6 -35 7 -37 60 -3 77 -13 76
-13 -2z"/>
<path d="M590 540 c-41 -41 -10 -110 48 -110 38 0 60 19 68 56 12 62 -70 100
-116 54z m84 -6 c21 -20 20 -53 -1 -76 -20 -22 -41 -23 -65 -1 -34 31 -13 93
32 93 10 0 26 -7 34 -16z"/>
<path d="M758 495 c15 -36 29 -65 32 -65 4 0 12 17 19 37 l14 37 20 -39 c17
-35 21 -37 27 -20 5 11 17 41 29 68 11 26 16 47 11 47 -4 0 -16 -20 -26 -45
-9 -25 -19 -45 -23 -45 -3 0 -14 20 -24 45 -11 25 -23 45 -28 45 -6 0 -6 -6
-1 -16 9 -16 -5 -74 -18 -74 -3 0 -13 20 -23 45 -11 25 -23 45 -27 45 -5 0 3
-29 18 -65z"/>
<path d="M940 495 l0 -65 48 2 c43 1 44 2 10 5 -32 4 -38 8 -38 28 0 19 6 24
33 28 l32 4 -32 1 c-28 2 -33 6 -33 26 0 21 5 25 38 29 34 3 33 4 -10 5 l-48
2 0 -65z"/>
<path d="M1062 493 c0 -37 3 -53 5 -35 5 40 21 41 36 2 6 -16 15 -30 19 -30
11 0 10 8 -3 31 -7 15 -7 24 1 34 6 8 10 24 8 37 -2 18 -10 24 -35 26 l-33 3
2 -68z m42 51 c21 -8 20 -30 -1 -38 -21 -8 -38 8 -30 28 7 18 9 18 31 10z"/>
</g>
</svg>
