 <svg  version="1.0" xmlns="http://www.w3.org/2000/svg"  width="150.000000pt" height="150.000000pt" viewBox="0 0 150.000000 150.000000"  preserveAspectRatio="xMidYMid meet">  <g transform="translate(0.000000,150.000000) scale(0.100000,-0.100000)" fill="#ffffff" stroke="none"> <path d="M976 1089 c-8 -12 -12 -29 -8 -38 5 -14 4 -14 -12 -2 -29 24 -43 -2 -15 -30 l22 -22 27 32 c29 34 37 81 14 81 -7 0 -20 -10 -28 -21z"/> <path d="M1046 1102 c-13 -22 -33 -92 -25 -92 5 0 9 -6 9 -14 0 -9 -8 -12 -25 -8 -18 3 -25 0 -25 -11 0 -16 21 -16 77 1 18 6 40 9 50 7 61 -12 83 -14 78 -5 -3 5 -26 12 -51 16 -31 4 -42 10 -35 17 7 7 30 6 72 -3 121 -26 178 -124 129 -224 -28 -58 -72 -86 -137 -86 -37 0 -60 7 -88 25 -20 15 -39 25 -40 23 -2 -2 -1 -16 2 -31 7 -33 53 -63 72 -44 8 8 11 7 11 -6 0 -35 106 -16 168 30 63 47 90 143 63 225 -13 40 -74 102 -114 117 -36 14 -103 14 -128 1 -24 -13 -25 -2 -1 17 9 8 11 12 5 8 -7 -3 -13 -1 -13 5 0 6 12 9 26 8 15 -2 29 2 31 9 3 7 -8 11 -29 10 -24 -2 -36 -8 -43 -24 -13 -31 -29 -29 -21 1 6 24 -7 45 -18 28z m40 -73 c10 -16 -11 -32 -34 -24 -13 4 -19 12 -15 21 6 16 39 19 49 3z"/> <path d="M240 1090 c0 -5 5 -10 10 -10 6 0 10 -7 10 -15 0 -10 10 -15 28 -15 26 1 26 1 7 15 -11 8 -25 19 -32 25 -15 13 -23 13 -23 0z"/> <path d="M348 1053 c-6 -15 -12 -32 -12 -37 -2 -17 -26 -18 -26 -1 0 9 -5 13 -10 10 -6 -4 -8 -11 -5 -16 4 -5 -22 -36 -57 -69 -34 -33 -63 -60 -63 -60 0 0 2 38 4 85 l3 85 -26 0 -26 0 0 -199 0 -198 25 5 c24 4 25 7 25 89 0 63 4 88 15 100 9 8 17 14 18 12 2 -2 20 -26 42 -54 21 -27 40 -52 42 -54 4 -6 33 20 33 31 0 5 -4 7 -9 4 -5 -3 -11 4 -14 16 -5 19 -8 20 -23 7 -16 -13 -17 -12 -11 10 7 29 -8 51 -34 51 -11 0 -19 5 -19 10 0 6 6 10 13 10 7 0 23 10 34 23 11 12 37 37 57 55 20 19 33 39 30 44 -4 6 -2 8 3 5 6 -4 20 1 32 11 l20 17 -24 18 c-25 18 -25 18 -37 -10z"/> <path d="M670 1034 c0 -21 -3 -24 -14 -15 -10 9 -15 8 -19 -3 -6 -16 36 -38 58 -30 17 7 19 27 5 55 -15 27 -30 24 -30 -7z"/> <path d="M478 895 c2 -85 7 -155 12 -155 4 0 14 -2 22 -5 10 -4 13 26 13 155 l0 160 -25 0 -25 0 3 -155z"/> <path d="M828 865 c2 -124 -1 -185 -8 -185 -5 0 -10 11 -10 23 0 13 -9 32 -20 42 -19 17 -19 17 -11 -12 16 -56 38 -80 69 -76 l27 5 0 194 0 194 -25 0 -25 0 3 -185z"/> <path d="M405 1021 c-3 -6 4 -15 15 -21 12 -6 19 -17 17 -24 -3 -6 3 -12 14 -12 25 0 24 2 -8 33 -17 16 -21 24 -11 20 10 -3 20 -2 23 3 4 6 -5 10 -19 10 -14 0 -27 -4 -31 -9z"/> <path d="M756 967 c-14 -10 -15 -17 -6 -41 6 -16 12 -27 13 -25 2 2 9 13 17 23 14 18 13 19 -2 13 -27 -10 -31 10 -6 27 12 9 18 16 12 16 -6 0 -18 -6 -28 -13z"/> <path d="M678 960 c-3 -8 1 -28 9 -44 12 -22 17 -26 24 -15 5 8 4 15 -1 17 -6 2 -10 8 -10 13 0 6 5 7 12 3 7 -4 8 -3 4 5 -4 6 -11 9 -16 6 -5 -3 -10 3 -12 12 -3 15 -5 15 -10 3z"/> <path d="M982 932 c-20 -53 -24 -73 -17 -112 5 -31 11 -40 26 -40 11 0 18 3 16 8 -5 8 8 110 18 134 4 11 0 20 -13 27 -17 9 -21 6 -30 -17z"/> <path d="M1078 944 c10 -7 30 -11 44 -11 40 3 15 25 -27 24 -29 -1 -32 -3 -17 -13z"/> <path d="M395 903 c3 -25 7 -48 9 -51 3 -2 0 -14 -6 -26 -9 -17 -8 -19 3 -8 18 17 27 15 32 -5 4 -17 4 -17 12 0 5 12 1 22 -14 35 -12 10 -23 33 -25 56 -3 21 -2 35 2 31 4 -4 8 -11 8 -16 3 -22 5 -23 14 -9 10 17 -5 40 -26 40 -10 0 -13 -12 -9 -47z"/> <path d="M1178 943 c-28 -7 -22 -33 7 -33 15 0 25 6 25 14 0 18 -10 24 -32 19z"/> <path d="M353 915 c4 -16 9 -40 13 -52 4 -14 2 -23 -5 -23 -6 0 -11 5 -11 11 0 8 -5 8 -15 -1 -21 -18 -19 -32 5 -25 11 3 20 2 20 -3 0 -6 -5 -12 -12 -14 -7 -3 -8 -10 -2 -21 7 -11 14 -13 24 -7 12 8 11 10 -5 10 -17 0 -17 2 -5 10 19 12 20 115 1 133 -11 10 -13 7 -8 -18z"/> <path d="M601 906 c-9 -11 -4 -15 28 -20 38 -6 57 -26 45 -49 -3 -7 2 -3 11 8 16 19 17 19 10 -15 -4 -26 -3 -31 4 -20 19 28 11 46 -33 78 -51 37 -50 36 -65 18z"/> <path d="M1107 913 c-11 -10 -8 -25 3 -18 6 3 10 -3 10 -14 0 -12 -4 -22 -10 -22 -5 -1 -16 -2 -22 -3 -7 0 -13 -13 -14 -29 -1 -15 -4 -30 -7 -34 -10 -9 33 -64 45 -57 6 4 5 10 -3 15 -8 5 -10 9 -5 9 6 0 1 7 -10 15 -10 8 -14 15 -9 14 6 -1 17 -1 25 0 12 1 11 4 -4 16 -10 7 -15 18 -11 24 9 15 35 14 35 -2 0 -27 55 -7 69 24 7 17 12 32 10 34 -2 2 -21 -5 -43 -16 l-38 -18 6 34 c5 26 3 35 -7 35 -7 0 -17 -3 -20 -7z"/> <path d="M770 855 c0 -14 4 -25 9 -25 5 0 12 -8 14 -17 3 -10 3 -2 2 17 -2 19 -4 38 -4 43 -2 20 -21 4 -21 -18z"/> <path d="M1028 844 l-4 -35 18 23 c21 28 23 48 4 48 -8 0 -15 -14 -18 -36z"/> <path d="M618 853 c17 -7 15 -23 -4 -23 -8 0 -12 -4 -9 -10 6 -10 45 -14 45 -4 0 15 -22 44 -33 43 -9 0 -9 -2 1 -6z"/> <path d="M722 813 c3 -13 3 -25 -2 -28 -4 -2 -5 -16 -2 -30 3 -20 7 -23 18 -14 19 16 18 57 -3 77 -16 16 -16 16 -11 -5z"/> <path d="M414 792 c3 -6 2 -13 -4 -17 -5 -3 -10 -20 -10 -37 0 -39 9 -31 20 16 5 23 4 38 -3 43 -5 3 -7 1 -3 -5z"/> <path d="M921 781 c-7 -12 -9 -26 -6 -31 3 -6 -1 -10 -9 -10 -9 0 -16 -5 -16 -11 0 -6 8 -9 18 -7 9 2 17 10 17 18 0 8 6 20 12 25 8 6 9 15 4 24 -7 11 -11 9 -20 -8z"/> <path d="M1132 778 c2 -12 14 -28 28 -35 22 -11 25 -10 28 8 6 33 -6 49 -33 49 -22 0 -26 -4 -23 -22z"/> <path d="M323 742 c-18 -11 39 -78 72 -84 37 -7 39 5 6 36 -21 20 -30 24 -34 14 -3 -7 -6 -1 -6 15 -1 27 -15 34 -38 19z"/> <path d="M517 708 c11 -12 9 -14 -10 -13 -24 2 -70 -40 -64 -59 6 -19 50 -19 65 1 10 13 16 14 19 6 3 -7 14 -13 25 -13 21 0 21 0 -1 19 -12 11 -20 28 -19 41 2 13 -3 25 -12 28 -12 4 -13 3 -3 -10z"/> <path d="M940 696 c0 -16 5 -26 15 -26 8 0 15 6 15 14 0 7 -7 19 -15 26 -13 11 -15 8 -15 -14z"/> <path d="M567 681 c4 -17 16 -20 84 -23 76 -3 79 -2 79 20 0 21 -4 22 -84 22 -78 0 -84 -1 -79 -19z"/> <path d="M460 501 l0 -71 46 0 c30 0 43 4 38 11 -3 6 -19 9 -35 5 l-29 -5 0 59 c0 32 -4 62 -10 65 -6 4 -10 -20 -10 -64z"/> <path d="M613 560 c-69 -28 -48 -133 27 -133 59 0 91 67 53 111 -22 25 -51 33 -80 22z m55 -26 c30 -21 29 -59 -3 -80 -23 -15 -27 -15 -50 0 -29 19 -32 51 -8 78 20 22 32 23 61 2z"/> <path d="M730 563 c0 -15 54 -133 61 -133 3 0 13 17 21 38 l14 37 14 -37 c8 -21 17 -38 20 -38 9 0 63 130 56 137 -3 3 -16 -17 -28 -45 -13 -28 -25 -52 -29 -52 -3 0 -13 23 -23 50 -10 28 -23 50 -28 50 -6 0 -7 -8 -3 -17 9 -25 9 -25 1 -55 -5 -16 -11 -28 -15 -28 -4 0 -15 23 -25 50 -10 28 -22 50 -27 50 -5 0 -9 -3 -9 -7z"/> <path d="M343 495 c1 -36 6 -64 12 -63 5 2 8 15 6 31 -2 25 0 27 34 27 22 0 34 4 30 10 -4 6 -19 9 -33 8 -21 -2 -28 2 -30 19 -3 19 2 22 35 26 36 3 35 4 -9 5 l-47 2 2 -65z"/> <path d="M940 496 l0 -64 45 -4 c29 -2 45 1 45 8 0 7 -14 10 -35 7 -32 -3 -35 -1 -35 22 0 21 5 25 30 25 17 0 30 5 30 11 0 7 -11 9 -30 6 -27 -6 -30 -4 -30 18 0 20 6 24 38 28 34 3 33 4 -10 5 l-48 2 0 -64z"/> <path d="M1060 490 c0 -43 4 -69 10 -65 5 3 7 19 3 35 -8 43 14 39 33 -5 8 -20 19 -33 24 -30 6 4 3 16 -6 31 -16 23 -15 26 2 45 24 27 8 53 -35 57 l-31 3 0 -71z m44 54 c21 -8 20 -30 -1 -38 -21 -8 -38 8 -30 28 7 18 9 18 31 10z"/> </g> </svg> 